<?xml version="1.0" encoding="utf-8" ?>
<svg xmlns="http://www.w3.org/2000/svg" xmlns:xlink="http://www.w3.org/1999/xlink" width="3661" height="3661">
	<path transform="matrix(3.5752 0 0 3.5752 0.00390625 0)" d="M500.522 41.2196C504.315 40.7844 508.238 40.864 512.055 40.8565Q514.979 40.8415 517.902 40.8976Q520.826 40.9538 523.747 41.0811Q526.669 41.2084 529.586 41.4067Q532.503 41.6051 535.415 41.8744Q538.327 42.1436 541.231 42.4837Q544.135 42.8238 547.03 43.2344Q549.925 43.645 552.81 44.126Q555.694 44.607 558.566 45.158Q561.437 45.709 564.295 46.3298Q567.152 46.9505 569.994 47.6406Q572.835 48.3307 575.659 49.0898Q578.483 49.8488 581.287 50.6764Q584.092 51.5039 586.875 52.3995Q589.659 53.295 592.42 54.2581Q595.181 55.2211 597.917 56.251Q600.654 57.281 603.365 58.3772Q606.076 59.4734 608.759 60.6353Q611.443 61.7972 614.097 63.024Q616.751 64.2508 619.375 65.5419Q621.998 66.833 624.59 68.1875Q627.181 69.542 629.739 70.9592Q632.296 72.3764 634.819 73.8554Q637.341 75.3345 639.827 76.8744Q642.313 78.4144 644.76 80.0144Q647.208 81.6144 649.616 83.2735Q652.023 84.9326 654.39 86.6498Q656.757 88.367 659.081 90.1413Q661.405 91.9156 663.686 93.7459Q665.966 95.5762 668.201 97.4615Q670.436 99.3468 672.625 101.286Q674.814 103.225 676.954 105.217Q679.095 107.209 681.187 109.252C723.264 151.174 747.713 204.146 754.176 263.022C756.529 284.451 756.482 306.185 756.512 327.712C772.562 338.289 783.584 352.99 787.412 371.987C789.002 379.882 789.101 387.732 789.146 395.745C789.25 414.266 788.239 431.192 777.648 447.103C766.985 463.123 751.847 473.604 732.91 477.206C727.095 478.312 714.898 480.484 709.807 476.668C708.1 475.388 707.737 474.459 707.538 472.384C707.436 471.327 707.464 470.577 706.947 469.627C704.368 472.437 702.327 476.18 700.091 479.301Q694.957 486.399 688.963 492.788C681.115 501.141 670.811 508.184 663.785 516.57C658.91 522.388 654.945 529.08 650.311 535.123Q642.246 545.725 633.25 555.55Q624.255 565.375 614.403 574.342C618.172 577.767 621.527 581.693 624.962 585.448Q628.359 585.666 631.751 585.959Q635.143 586.253 638.527 586.622Q641.911 586.992 645.286 587.437Q648.661 587.882 652.026 588.402Q655.39 588.922 658.742 589.517Q662.094 590.113 665.432 590.783Q668.769 591.453 672.091 592.198Q675.413 592.942 678.717 593.761Q682.022 594.579 685.307 595.472Q688.592 596.364 691.857 597.33Q695.121 598.295 698.364 599.333Q701.606 600.372 704.824 601.482Q708.042 602.593 711.234 603.775Q714.427 604.957 717.592 606.211Q720.757 607.464 723.894 608.787Q727.03 610.111 730.136 611.505Q733.242 612.898 736.316 614.361Q739.391 615.823 742.431 617.354Q745.472 618.885 748.477 620.484Q751.483 622.083 754.452 623.748Q757.422 625.413 760.353 627.145Q763.284 628.876 766.176 630.672Q769.067 632.469 771.918 634.329Q774.769 636.19 777.578 638.114Q780.386 640.038 783.151 642.024Q785.916 644.01 788.636 646.058Q791.356 648.105 794.029 650.213Q796.702 652.321 799.328 654.488Q801.953 656.655 804.53 658.88Q807.106 661.105 809.632 663.388Q812.158 665.67 814.632 668.008Q817.107 670.346 819.528 672.739Q821.369 674.62 823.172 676.538Q824.974 678.455 826.738 680.409Q828.502 682.362 830.226 684.351Q831.95 686.339 833.634 688.362Q835.318 690.384 836.961 692.44Q838.604 694.497 840.206 696.585Q841.807 698.674 843.366 700.794Q844.925 702.915 846.441 705.066Q847.958 707.217 849.43 709.399Q850.903 711.58 852.332 713.791Q853.76 716.001 855.144 718.24Q856.528 720.479 857.866 722.745Q859.205 725.011 860.498 727.303Q861.791 729.596 863.037 731.914Q864.284 734.232 865.484 736.574Q866.683 738.917 867.836 741.283Q868.988 743.649 870.093 746.038Q871.197 748.427 872.254 750.837Q873.31 753.248 874.318 755.679Q875.326 758.111 876.285 760.562Q877.244 763.013 878.153 765.483Q879.062 767.952 879.922 770.44Q880.782 772.928 881.591 775.432Q882.401 777.936 883.16 780.456Q883.918 782.977 884.627 785.511Q885.335 788.046 885.992 790.595Q886.649 793.143 887.255 795.704Q887.861 798.266 888.415 800.839Q888.969 803.411 889.472 805.995Q889.974 808.579 890.425 811.172Q890.875 813.765 891.274 816.366Q891.672 818.968 892.018 821.577C894.477 839.167 895.104 856.775 895.009 874.516Q895.031 879.949 894.841 885.379Q894.652 890.809 894.252 896.228Q893.853 901.646 893.243 907.045Q892.634 912.444 891.815 917.815Q890.997 923.186 889.971 928.522Q888.945 933.857 887.712 939.149Q886.48 944.44 885.043 949.68Q883.607 954.92 881.968 960.1C879.547 967.615 877.111 976.039 871.37 981.72C858.513 983.309 845.707 982.135 832.812 982.139L756.893 982.171L493.75 982.36L248.399 982.325L188.498 982.352C175.872 982.393 162.036 983.837 149.685 981.175C146.524 976.29 145.057 969.984 143.318 964.465C137.191 945.022 132.026 925.646 129.873 905.322C128.588 893.184 128.312 881.043 128.276 868.847C128.075 802.707 146.085 743.112 188.093 691.323C228.044 642.07 284.582 609.554 345.423 593.446C354.967 590.918 364.582 588.487 374.328 586.862C381.102 585.733 387.997 585.233 394.825 584.517Q400.817 579.172 406.632 573.636Q403.474 571.049 400.396 568.369Q397.318 565.688 394.321 562.917Q391.325 560.145 388.413 557.285Q385.501 554.424 382.676 551.478Q379.852 548.531 377.117 545.501Q374.382 542.471 371.739 539.36Q369.097 536.249 366.549 533.06Q364.001 529.871 361.55 526.607Q359.099 523.343 356.748 520.007Q354.396 516.67 352.145 513.265Q349.895 509.86 347.748 506.388Q345.601 502.917 343.559 499.382Q341.517 495.848 339.582 492.254Q337.648 488.66 335.822 485.009Q333.996 481.358 332.281 477.655Q330.565 473.951 328.962 470.197C324.373 459.591 320.647 448.675 316.923 437.746C317.498 444.315 318.221 470.66 317.003 476.153C316.68 477.609 315.874 478.536 314.611 479.26C308.3 482.877 292.272 480.06 285.457 478.279Q283.782 477.847 282.13 477.333Q280.479 476.819 278.854 476.224Q277.23 475.629 275.637 474.955Q274.044 474.281 272.486 473.529Q270.928 472.777 269.41 471.95Q267.891 471.122 266.415 470.22Q264.938 469.319 263.508 468.345Q262.078 467.372 260.698 466.329Q259.318 465.287 257.991 464.177Q256.664 463.068 255.393 461.894Q254.122 460.721 252.911 459.486Q251.699 458.251 250.55 456.958Q249.401 455.665 248.317 454.317Q247.233 452.969 246.217 451.569Q245.201 450.17 244.255 448.721Q243.309 447.273 242.436 445.78Q241.271 443.766 240.272 441.664Q239.273 439.563 238.447 437.387Q237.621 435.212 236.973 432.977Q236.325 430.743 235.859 428.463C232.806 413.811 232.836 381.393 236.904 366.739C241.789 349.14 251.84 337.136 267.61 328.287C265.519 250.145 277.661 180.928 330.945 120.792Q332.536 119.005 334.162 117.251Q335.789 115.497 337.45 113.775Q339.111 112.054 340.806 110.366Q342.502 108.678 344.23 107.025Q345.959 105.372 347.721 103.753Q349.483 102.135 351.277 100.552Q353.07 98.9693 354.896 97.4228Q356.721 95.8764 358.576 94.3669Q360.432 92.8573 362.318 91.3853Q364.204 89.9133 366.119 88.4794Q368.034 87.0455 369.977 85.6503Q371.92 84.2551 373.891 82.8992Q375.862 81.5433 377.859 80.2271Q379.857 78.9109 381.881 77.6351Q383.904 76.3593 385.953 75.1243Q388.002 73.8893 390.075 72.6957Q392.148 71.502 394.245 70.3502Q396.341 69.1984 398.461 68.0888Q400.58 66.9793 402.721 65.9125Q404.862 64.8456 407.025 63.822Q409.187 62.7983 411.369 61.8182Q413.551 60.8381 415.753 59.902Q417.954 58.9658 420.174 58.074Q422.394 57.1822 424.631 56.3351Q426.868 55.488 429.122 54.686Q431.376 53.8839 433.645 53.1272Q435.914 52.3705 438.199 51.6595Q440.483 50.9484 442.781 50.2833Q445.079 49.6182 447.389 48.9994Q449.7 48.3805 452.023 47.8081Q454.346 47.2357 456.679 46.71Q459.013 46.1843 461.357 45.7055C474.278 43.1322 487.387 42.0031 500.522 41.2196ZM653.385 599.778C665.392 620.282 675.86 641.611 686.644 662.77C692.174 673.622 698.739 684.432 703.353 695.691C704.362 698.153 705.243 700.851 705.231 703.531C702.181 708.014 646.839 733.035 636.93 737.864C641.967 746.281 646.311 755.104 650.849 763.797C655.039 771.824 660.676 780.697 662.927 789.495C657.029 796.145 649.507 801.875 642.802 807.722L606.735 839.277L550.746 889.129C541.217 897.606 521.992 916.605 511.801 921.454C509.711 920.599 507.781 919.773 506.032 918.305C496.925 910.659 488.599 901.859 479.634 893.977Q439.954 859.452 400.724 824.417C391.195 815.891 371.752 801.02 365.526 790.81C370.288 772.635 377.729 755.292 385.154 738.078C371.283 731.245 357.716 723.909 344.083 716.621C337.719 713.218 330.887 710.254 324.865 706.297C322.978 705.057 320.597 703.597 319.852 701.379C319.225 699.511 319.336 697.591 319.978 695.743C322.8 687.612 328.135 679.632 332.053 671.913C339.307 657.619 346.402 643.263 353.805 629.042C358.774 619.495 364.309 609.969 368.755 600.178C295.037 613.998 226.35 653.319 183.533 715.937C174.573 729.042 166.134 743.601 160.278 758.379C145.153 794.729 139.428 832.925 139.397 872.122C139.384 888.949 140.147 905.361 143.299 921.922C146.524 938.864 152.16 955.221 157.893 971.446C223.75 970.768 289.671 971.383 355.536 971.39L708.212 971.301C760.31 971.307 812.475 972.078 864.562 971.481C868.12 962.772 872.588 954.796 875.258 945.679C880.43 928.025 882.536 909.428 883.629 891.119C886.406 844.647 881.566 802.816 863.469 759.681C834.921 691.635 781.841 644.942 714.098 617.42C694.132 609.308 674.565 603.554 653.385 599.778ZM462.613 241.799C446.463 268.214 422.126 286.499 393.365 297.299C383.405 301.039 372.826 303.846 363.676 309.396C342.335 322.343 333.506 353.682 328.648 376.751C325.731 390.597 320.361 407.615 323.749 421.593C326.353 432.336 330.284 442.894 334.252 453.19C355.028 507.1 390.889 554.081 440.737 584.096C468.768 600.975 502.507 613.62 535.369 605.33C569.944 596.608 600.629 574.431 624.543 548.518C632.175 540.248 639.079 531.318 645.983 522.443C642.581 524.321 639.18 526.079 635.646 527.693C622.034 533.505 608.301 537.447 593.762 540.208C590.917 547.796 587.139 553.593 579.461 557.053C566.148 563.051 538.338 563.45 524.768 558.2C518.483 555.768 512.781 551.243 510.025 544.967C507.461 539.127 507.002 532.422 509.336 526.425C511.942 519.725 517.789 515.038 524.294 512.37C538.359 506.6 564.477 506.92 578.487 512.855C586.056 516.061 590.529 521.256 594.047 528.551C612.814 525.009 637.516 517.738 652.292 505.317C656.81 501.519 660.394 496.917 663.703 492.059C673.659 477.446 681.186 460.343 687.559 443.896C687.423 443.771 687.285 443.648 687.15 443.522C684.287 440.84 683.192 437.805 682.304 434.04C680.585 426.758 680.506 418.687 679.681 411.238C676.829 385.49 671.68 357.564 652.033 338.99C629.468 317.657 597.552 315.615 569.138 307.73C551.664 302.881 534.745 296.607 518.714 288.065Q512.921 285.047 507.374 281.595Q501.828 278.144 496.561 274.28Q491.294 270.415 486.338 266.16Q481.381 261.906 476.763 257.285C471.996 252.471 467.738 246.085 462.613 241.799ZM505.317 82.2198C492.642 83.3871 480.01 84.6661 467.546 87.3342Q465.458 87.7664 463.38 88.2421Q461.302 88.7177 459.234 89.2366Q457.166 89.7555 455.11 90.3174Q453.053 90.8792 451.009 91.4838Q448.964 92.0885 446.933 92.7356Q444.902 93.3827 442.884 94.072Q440.867 94.7614 438.864 95.4926Q436.862 96.2238 434.875 96.9966Q432.888 97.7695 430.917 98.5836Q428.947 99.3976 426.994 100.253Q425.041 101.108 423.106 102.003Q421.171 102.899 419.256 103.834Q417.34 104.77 415.444 105.745Q413.549 106.721 411.674 107.735Q409.799 108.75 407.945 109.804Q406.092 110.857 404.261 111.949Q402.43 113.041 400.622 114.171Q398.814 115.301 397.03 116.468Q395.246 117.636 393.487 118.84Q391.728 120.044 389.994 121.285Q388.26 122.526 386.553 123.802Q384.845 125.079 383.165 126.391Q381.484 127.703 379.831 129.049Q378.179 130.396 376.554 131.777Q374.93 133.158 373.335 134.572Q371.74 135.986 370.174 137.434Q368.609 138.881 367.074 140.361Q365.539 141.84 364.035 143.352Q362.532 144.863 361.06 146.405Q359.588 147.948 358.148 149.52Q356.709 151.093 355.303 152.695Q353.897 154.298 352.524 155.929C311.555 205.212 301.464 256.277 303.996 318.946C307.747 318.924 312.48 318.314 315.29 321.39C318.165 324.537 317.625 368.484 317.341 375.175C319.647 367.148 321.034 358.882 323.341 350.85C329.468 329.519 340.869 308.718 360.815 297.619C368.801 293.176 377.461 290.466 386.026 287.41C404.47 280.828 421.369 271.761 435.605 258.092C442.581 251.393 448.813 243.821 452.974 235.038C454.447 231.928 455.422 227.714 457.41 224.991C458.519 223.472 460.391 222.229 462.355 222.651C466.59 223.559 471.872 233.758 474.564 237.328Q477.877 241.681 481.569 245.717C492.77 257.901 505.827 267.279 520.051 275.557C535.987 283.948 551.641 290.953 569.043 295.738C581.235 299.091 593.717 300.772 605.979 303.746C644.635 313.119 671.79 331.778 684.084 371.114C689.624 388.841 691.745 408.007 693.254 426.459C697.852 418.228 704.171 408.935 705.892 399.518C708.786 383.697 702.246 336.914 708.461 325.78C710.268 322.544 713.94 321.325 717.299 320.374Q718.54 320.02 719.79 319.701C719.949 301.816 720.889 283.469 718.907 265.673C713.905 220.742 691.024 175.41 659.483 143.286C621.988 105.099 566.029 82.3785 512.673 82.0629C510.268 82.0486 507.689 81.8994 505.317 82.2198ZM415.567 580.466Q408.185 587.926 400.613 595.193L466.722 773.265C481.572 813.044 495.896 853.023 512.363 892.167C520.062 872.335 527.062 852.244 534.456 832.298C539.009 820.019 544.059 807.907 548.496 795.594L608.929 633.349C613.413 621.087 617.169 608.521 621.726 596.309C615.934 591.938 610.96 586.73 605.895 581.561C576.617 605.023 539.738 623.352 501.338 618.978C480.072 616.556 456.801 607.473 438.723 596.17C430.81 591.222 423.588 585.237 415.567 580.466ZM632.957 597.373C628.152 613.563 622.108 629.437 616.259 645.271L595.168 702.186Q557.545 800.813 521.572 900.053C537.305 885.798 553.528 872.066 569.179 857.728Q608.819 821.569 649.876 787.025C640.832 768.789 629.467 751.347 621.235 732.771L691.731 698.21C684.637 682.65 676.289 667.681 668.531 652.447C659.321 634.361 650.531 615.906 640.57 598.227Q636.77 597.742 632.957 597.373ZM383.806 596.148L331.367 696.725Q353.464 707.965 375.354 719.606C383.372 723.872 391.932 727.91 399.509 732.912C397.59 740.873 393.74 748.805 390.47 756.295C385.752 767.108 380.912 777.836 376.442 788.757C386.57 796.461 395.991 805.523 405.607 813.885Q434.047 838.529 462.093 863.62C475.356 875.52 489.102 886.895 502.258 898.909C498.665 890.353 495.707 881.507 492.491 872.802Q486.054 855.505 479.384 838.297L411.631 658.402Q403.784 637.718 396.151 616.954C393.699 610.199 391.693 602.998 388.831 596.429C387.165 596.351 385.461 596.343 383.806 596.148ZM511.314 52.223C499.258 52.6258 487.139 53.2737 475.202 55.1018Q472.824 55.4603 470.454 55.869Q468.085 56.2776 465.724 56.7363Q463.363 57.1949 461.013 57.7032Q458.663 58.2116 456.324 58.7695Q453.985 59.3274 451.658 59.9345Q449.331 60.5417 447.017 61.1979Q444.704 61.854 442.405 62.5589Q440.106 63.2637 437.822 64.017Q435.538 64.7703 433.271 65.5716Q431.004 66.3729 428.754 67.2219Q426.504 68.071 424.273 68.9673Q422.041 69.8636 419.829 70.8069Q417.617 71.7502 415.426 72.74Q413.234 73.7297 411.064 74.7656Q408.894 75.8014 406.746 76.8828Q404.598 77.9643 402.474 79.0908Q400.349 80.2174 398.249 81.3885Q396.149 82.5597 394.074 83.7749Q391.998 84.9902 389.95 86.249Q387.901 87.5078 385.879 88.8096Q383.857 90.1114 381.863 91.4556Q379.869 92.7998 377.904 94.1858Q375.939 95.5718 374.003 96.999Q372.068 98.4262 370.163 99.894Q368.258 101.362 366.385 102.869Q364.512 104.377 362.67 105.924Q360.829 107.471 359.021 109.056Q357.213 110.642 355.439 112.265Q353.665 113.888 351.925 115.548Q350.186 117.209 348.482 118.905Q346.778 120.602 345.11 122.335Q343.442 124.067 341.811 125.834C330.719 137.702 321.431 150.924 313.257 164.934C285.115 213.166 277.176 264.904 279.104 320.17Q279.141 321.271 279.19 322.372C283.622 321.37 288.159 320.514 292.505 319.183C292.611 300.639 292.257 281.919 294.279 263.46Q294.517 261.209 294.802 258.964Q295.088 256.718 295.422 254.479Q295.755 252.241 296.137 250.01Q296.518 247.779 296.948 245.556Q297.377 243.334 297.853 241.121Q298.33 238.908 298.854 236.706Q299.377 234.504 299.948 232.314Q300.519 230.123 301.136 227.946Q301.754 225.768 302.417 223.604Q303.081 221.44 303.791 219.291Q304.501 217.142 305.257 215.008Q306.013 212.874 306.814 210.758Q307.615 208.641 308.462 206.541Q309.308 204.442 310.199 202.361Q311.09 200.281 312.026 198.219Q312.961 196.158 313.94 194.117Q314.919 192.077 315.942 190.057Q316.965 188.038 318.03 186.041Q319.096 184.044 320.204 182.07Q321.312 180.097 322.462 178.147Q323.612 176.198 324.803 174.273Q325.995 172.348 327.227 170.45Q328.459 168.551 329.732 166.679Q331.005 164.807 332.317 162.963Q333.629 161.119 334.981 159.303Q336.332 157.488 337.722 155.701Q339.112 153.915 340.54 152.159Q341.968 150.402 343.433 148.677Q344.899 146.952 346.4 145.258Q347.902 143.565 349.44 141.904Q350.977 140.242 352.55 138.615Q354.123 136.987 355.73 135.393Q357.651 133.477 359.619 131.609Q361.586 129.741 363.599 127.921Q365.612 126.102 367.669 124.333Q369.726 122.564 371.826 120.846Q373.926 119.128 376.068 117.462Q378.21 115.796 380.392 114.184Q382.574 112.571 384.795 111.013Q387.016 109.454 389.274 107.951Q391.533 106.448 393.828 105Q396.123 103.553 398.453 102.163Q400.783 100.772 403.146 99.4395Q405.51 98.1068 407.905 96.8327Q410.3 95.5586 412.727 94.3438Q415.153 93.129 417.608 91.9742Q420.063 90.8195 422.546 89.7255Q425.029 88.6315 427.538 87.599Q430.047 86.5664 432.581 85.5959Q435.114 84.6254 437.671 83.7175Q440.228 82.8096 442.806 81.9649Q445.385 81.1201 447.983 80.3391Q450.581 79.5581 453.198 78.8412Q455.815 78.1244 458.449 77.4721Q461.082 76.8199 463.731 76.2326Q466.38 75.6453 469.043 75.1234Q471.705 74.6015 474.38 74.1452Q477.055 73.6889 479.739 73.2986Q482.424 72.9083 485.118 72.5842Q487.812 72.26 490.513 72.0022Q493.214 71.7445 495.92 71.5532Q498.627 71.362 501.337 71.2374Q504.048 71.1128 506.76 71.0549Q509.473 70.997 512.186 71.0059Q513.292 71.0115 514.398 71.0409C579.448 74.3567 630.875 94.6335 675.21 143.603C698.015 168.792 713.697 198.924 723.15 231.444C726.304 242.294 728.958 253.558 729.809 264.841C731.177 282.983 728.985 301.441 730.711 319.474Q737.791 320.869 744.812 322.535C744.19 303.419 745.042 284.472 743.112 265.373Q742.855 262.69 742.537 260.014Q742.22 257.338 741.843 254.669Q741.466 252.001 741.029 249.341Q740.592 246.682 740.095 244.033Q739.599 241.384 739.043 238.747Q738.487 236.11 737.872 233.486Q737.258 230.862 736.584 228.253Q735.911 225.643 735.179 223.05Q734.447 220.456 733.657 217.879Q732.868 215.302 732.02 212.744Q731.173 210.186 730.269 207.647Q729.364 205.108 728.403 202.591Q727.442 200.073 726.424 197.577Q725.407 195.082 724.334 192.61Q723.261 190.137 722.133 187.69Q721.004 185.242 719.822 182.821Q718.639 180.399 717.402 178.005Q716.165 175.611 714.875 173.244Q713.585 170.878 712.242 168.542Q710.899 166.205 709.504 163.899Q708.109 161.593 706.662 159.319Q705.216 157.045 703.719 154.804Q702.222 152.563 700.676 150.356Q699.129 148.15 697.533 145.978Q695.937 143.806 694.293 141.671Q692.648 139.536 690.957 137.438Q689.265 135.34 687.527 133.28Q685.789 131.221 684.005 129.201Q682.221 127.181 680.392 125.201Q678.563 123.222 676.69 121.284Q674.817 119.346 672.902 117.451Q670.986 115.555 669.028 113.703C627.376 74.7361 568.691 50.6 511.314 52.223ZM299.322 330.19C282.886 332.178 267.746 338.138 257.255 351.449C245.845 365.925 245.328 383.217 245.368 400.843C245.383 407.206 245.251 413.638 246.063 419.959C247.821 433.653 255.452 448.704 266.684 457.048C266.942 457.24 267.206 457.425 267.467 457.613C278.53 465.696 291.997 469.67 305.7 469.533C306.922 438.828 305.953 407.822 305.769 377.089C305.681 362.267 306.912 343.975 305.872 329.659L299.322 330.19ZM718.465 331.742C717.987 337.957 717.412 344.242 717.347 350.474C717.272 357.553 717.818 364.659 717.931 371.742C718.097 382.214 718.927 460.022 717.646 463.252C717.808 464.372 718.047 465.475 718.277 466.583C718.768 466.73 718.89 466.786 719.362 466.866C727.748 468.298 745.162 462.169 752.024 457.366C764.214 448.832 773.579 434.253 776.384 419.672C777.71 412.781 777.568 405.792 777.552 398.809C777.512 382.195 777.311 368.389 767.573 354.097C759.183 341.783 746.117 334.141 731.634 331.379C727.697 330.628 721.961 329.373 718.465 331.742ZM539.927 520.191C533.242 521.028 526.028 522.181 521.496 527.732C519.704 529.928 518.984 532.345 518.339 535.047C519.92 540.572 521.984 544.429 527.302 547.267C537.188 552.542 551.372 551.581 562.118 550.382C568.729 549.477 576.602 547.555 580.869 542.021C582.765 539.563 583.641 536.584 583.181 533.497C582.664 530.024 580.541 527.126 577.686 525.167C568.198 518.657 550.872 519.045 539.927 520.191ZM706.241 431.351C703.17 436.684 685.269 475.26 685.74 478.611C694.793 466.045 709.132 448.501 706.398 432.007C706.361 431.786 706.293 431.57 706.241 431.351ZM717.646 463.252C718.927 460.022 718.097 382.214 717.931 371.742C717.818 364.659 717.272 357.553 717.347 350.474C717.412 344.242 717.987 337.957 718.465 331.742C716.966 333.384 716.706 335.734 716.519 337.927C715.918 344.946 716.239 352.21 716.223 359.262Q716.188 379.079 716.386 398.896L716.85 436.007C716.876 445.004 716.514 454.096 716.935 463.08C716.972 463.868 717.09 464.588 717.253 465.357L717.646 463.252Z"/>
	<path transform="matrix(3.5752 0 0 3.5752 0.00390625 0)" d="M717.646 463.252L717.253 465.357C717.09 464.588 716.972 463.868 716.935 463.08C716.514 454.096 716.876 445.004 716.85 436.007L716.386 398.896Q716.188 379.079 716.223 359.262C716.239 352.21 715.918 344.946 716.519 337.927C716.706 335.734 716.966 333.384 718.465 331.742C717.987 337.957 717.412 344.242 717.347 350.474C717.272 357.553 717.818 364.659 717.931 371.742C718.097 382.214 718.927 460.022 717.646 463.252Z"/>
</svg>
