<?xml version="1.0" encoding="utf-8" ?>
<svg xmlns="http://www.w3.org/2000/svg" xmlns:xlink="http://www.w3.org/1999/xlink" width="3661" height="3661">
	<path transform="scale(3.5752 3.5752)" d="M60.0331 223.68C60.6337 223.609 61.2069 223.588 61.8118 223.57C75.4202 223.183 89.0838 223.461 102.701 223.48L171.915 223.503L383.444 223.476L623.445 223.546C661.188 223.547 699.033 222.915 736.763 223.541C739.595 223.588 744.406 223.56 746.821 225.013C748.761 226.18 750.485 229.101 751.691 231.022C762.016 247.471 771.154 264.833 781.024 281.583L849.737 397.388C857.185 409.867 866.16 427.173 874.93 438.392C879.914 444.769 888.374 448.325 895.015 452.786L949.576 489.162C960.461 496.374 973.09 503.355 982.537 512.384C993.411 522.775 994.954 533.366 995.215 547.806C995.666 572.784 995.19 597.849 995.224 622.837C995.241 635.291 996.618 657.057 994.319 668.481Q994.056 669.768 993.701 671.032Q993.345 672.297 992.899 673.533Q992.453 674.768 991.919 675.968Q991.385 677.168 990.766 678.327Q990.147 679.485 989.445 680.596Q988.744 681.706 987.964 682.763Q987.184 683.82 986.329 684.818Q985.475 685.816 984.551 686.749Q983.614 687.706 982.613 688.595Q981.613 689.484 980.552 690.302Q979.492 691.12 978.377 691.861Q977.262 692.603 976.099 693.265Q974.935 693.928 973.728 694.507Q972.521 695.087 971.277 695.581Q970.032 696.076 968.757 696.482Q967.481 696.888 966.18 697.205C956.665 699.494 946.255 698.002 936.542 697.965Q911.583 697.831 886.625 698.136C884.907 724.259 871.583 749.172 852.224 766.393C837.792 778.209 820.094 786.302 801.465 788.308C774.978 791.161 748.177 782.439 727.546 765.774C706.698 748.935 695.231 724.575 692.352 698.224C679.278 698.951 665.977 698.537 652.874 698.531L583.453 698.469L434.394 698.367C390.87 698.171 347.248 697.539 303.734 698.415C302.494 714.797 295.96 731.963 286.616 745.401C271.82 766.681 248.875 782.361 223.222 786.822Q222.026 787.035 220.825 787.218Q219.624 787.401 218.419 787.555Q217.213 787.709 216.005 787.833Q214.796 787.958 213.585 788.052Q212.374 788.147 211.16 788.211Q209.947 788.276 208.733 788.311Q207.518 788.346 206.303 788.351Q205.088 788.356 203.874 788.331Q202.659 788.306 201.445 788.251Q200.231 788.197 199.019 788.112Q197.807 788.028 196.598 787.914Q195.388 787.8 194.182 787.656Q192.975 787.512 191.773 787.339Q190.57 787.165 189.372 786.962Q188.174 786.759 186.982 786.527Q185.789 786.295 184.603 786.033Q183.416 785.772 182.237 785.481Q181.057 785.191 179.885 784.871Q178.712 784.552 177.548 784.204Q176.384 783.856 175.229 783.479Q174.074 783.102 172.929 782.698Q171.783 782.293 170.648 781.86Q169.513 781.427 168.388 780.966Q167.264 780.506 166.152 780.018Q165.039 779.529 163.939 779.014Q162.838 778.499 161.751 777.957Q160.664 777.414 159.59 776.846Q158.517 776.277 157.457 775.682Q156.398 775.087 155.353 774.466Q154.309 773.846 153.28 773.2Q152.251 772.553 151.239 771.882Q150.226 771.211 149.23 770.515C123.215 752.197 112 729.186 106.727 698.482C88.185 698.172 58.2292 702.162 42.9145 690.529C35.1081 684.6 30.5629 675.309 29.3384 665.691C28.281 657.386 28.5713 648.811 28.579 640.449L28.6208 606.017L28.5944 491.796L28.4671 334.583L28.3584 292.171C28.2307 280.734 27.6312 269.302 28.5341 257.882C29.169 249.85 31.1283 242.97 36.1796 236.558C42.2606 228.84 50.3806 224.773 60.0331 223.68ZM60.706 237.155C54.2414 238.748 48.8651 241.474 45.3297 247.402C42.9938 251.319 42.2427 255.519 42.0273 259.999C41.1465 278.32 41.9496 296.993 41.9743 315.353L42.0025 421.399L41.9407 547.084C41.9135 570.242 41.245 593.648 42.0774 616.781C74.4428 616.331 106.828 616.716 139.197 616.542C162.094 598.346 186.453 588.643 216.118 591.917C238.865 594.428 253.572 601.642 271.357 615.52Q377.713 613.864 484.077 614.843L562.987 615.065C575.41 615.11 587.937 615.623 600.345 615.293C599.869 610.834 600.223 606.2 600.285 601.711Q600.43 591.179 600.382 580.646L600.319 499.501L600.285 365.354C600.277 344.077 599.642 322.643 600.264 301.388C600.349 298.503 600.526 295.886 602.169 293.439C604.825 291.609 608.157 291.325 611.305 291.156C619.005 290.742 626.812 291.244 634.524 291.338Q653.244 291.497 671.964 291.462L703.039 291.308C710.782 291.194 719.016 290.286 726.666 291.643C730.707 292.359 732.757 295.353 734.928 298.58C740.934 307.507 746.218 317.03 751.851 326.201Q769.942 355.098 787.65 384.23Q800.95 405.46 814.527 426.514C819.002 433.49 823.902 440.392 827.968 447.602C829.174 449.741 830.19 451.765 829.661 454.287C829.301 456.004 827.837 457.648 826.277 458.39C823.823 459.557 820.217 459.361 817.543 459.435C798.502 459.968 779.387 459.196 760.336 459.136L648.75 459.084C637.047 459.092 625.191 458.745 613.506 459.255C612.206 478.223 613.289 497.741 613.204 516.777C613.057 549.569 612.387 582.479 613.055 615.26L723.542 615.006C747.522 597.626 772.44 586.652 802.708 591.351C821.411 594.256 838.027 602.674 852.604 614.538Q887.236 615.097 921.873 614.983C941.897 615.064 961.954 615.524 981.973 615.305L982.014 565.611C982.04 556.291 983.202 546.412 981.303 537.244C980.189 531.867 978.32 527.735 974.389 523.812C964.577 514.019 950.862 506.985 939.346 499.24L886.937 463.347C879.965 458.626 871.914 454.671 865.799 448.867C858.388 441.834 852.803 429.319 847.746 420.447Q841.637 409.82 835.299 399.328L785.328 315.977C769.961 289.853 755.138 263.389 739.121 237.656L305.608 237.198L142.391 237.059L90.3574 236.998C80.5399 236.981 70.5028 236.558 60.706 237.155ZM783.519 604.205C760.667 606.292 739.522 616.38 724.818 634.195C710.765 651.223 703.21 675.839 705.328 697.806Q705.429 698.835 705.555 699.861Q705.681 700.887 705.832 701.91Q705.983 702.933 706.159 703.952Q706.335 704.971 706.536 705.985Q706.737 706.999 706.963 708.008Q707.189 709.017 707.439 710.02Q707.69 711.023 707.965 712.02Q708.24 713.016 708.54 714.006Q708.839 714.995 709.163 715.977Q709.487 716.959 709.834 717.933Q710.182 718.907 710.554 719.872Q710.925 720.836 711.32 721.792Q711.715 722.747 712.134 723.693Q712.552 724.638 712.994 725.573Q713.435 726.508 713.899 727.432Q714.364 728.356 714.85 729.268Q715.337 730.18 715.846 731.08Q716.355 731.98 716.886 732.867Q717.417 733.754 717.97 734.628Q718.522 735.502 719.096 736.362Q719.67 737.222 720.265 738.068Q720.86 738.913 721.475 739.744Q722.091 740.575 722.726 741.39Q723.362 742.206 724.017 743.006Q724.672 743.805 725.347 744.589Q726.022 745.372 726.716 746.138Q727.41 746.905 728.122 747.654Q728.835 748.403 729.566 749.135Q730.296 749.866 731.044 750.58Q731.793 751.293 732.559 751.988Q733.324 752.683 734.107 753.359Q734.889 754.035 735.688 754.691C752.464 768.4 773.289 776.556 795.114 775.369C818.737 772.725 839.048 763.661 854.172 744.841Q854.854 743.998 855.515 743.138Q856.176 742.278 856.816 741.402Q857.456 740.525 858.073 739.634Q858.691 738.742 859.286 737.835Q859.882 736.929 860.455 736.007Q861.027 735.086 861.577 734.151Q862.127 733.216 862.654 732.267Q863.18 731.319 863.683 730.358Q864.186 729.397 864.664 728.423Q865.143 727.45 865.598 726.465Q866.053 725.48 866.483 724.484Q866.913 723.489 867.318 722.482Q867.723 721.476 868.104 720.46Q868.484 719.444 868.839 718.419Q869.194 717.394 869.523 716.361Q869.853 715.327 870.157 714.286Q870.46 713.245 870.738 712.196Q871.016 711.148 871.268 710.093Q871.52 709.037 871.746 707.976Q871.971 706.915 872.171 705.849Q872.37 704.783 872.543 703.712Q872.716 702.641 872.862 701.566Q873.008 700.491 873.128 699.413Q873.247 698.335 873.34 697.254Q873.433 696.173 873.499 695.091Q873.565 694.008 873.605 692.924Q873.644 691.84 873.656 690.755Q873.669 689.671 873.654 688.586Q873.64 687.501 873.598 686.417Q873.557 685.333 873.489 684.251Q873.421 683.168 873.326 682.088Q873.231 681.007 873.109 679.929Q872.994 678.885 872.854 677.845Q872.713 676.805 872.547 675.768Q872.381 674.731 872.19 673.699Q871.998 672.667 871.781 671.64Q871.565 670.612 871.323 669.591Q871.081 668.569 870.814 667.554Q870.548 666.538 870.256 665.53Q869.964 664.521 869.648 663.52Q869.332 662.519 868.991 661.526Q868.65 660.533 868.285 659.549Q867.92 658.564 867.531 657.589Q867.142 656.614 866.729 655.649Q866.316 654.683 865.88 653.729Q865.443 652.774 864.984 651.83Q864.524 650.886 864.041 649.954Q863.559 649.021 863.053 648.101Q862.548 647.181 862.02 646.274Q861.492 645.366 860.942 644.472Q860.392 643.578 859.82 642.697Q859.248 641.817 858.655 640.95Q858.062 640.084 857.448 639.233Q856.833 638.381 856.198 637.545Q855.563 636.709 854.908 635.889Q854.253 635.069 853.577 634.265Q852.902 633.461 852.207 632.674Q851.513 631.887 850.799 631.117Q850.085 630.347 849.352 629.595Q848.62 628.843 847.869 628.109Q847.118 627.375 846.35 626.66Q845.581 625.945 844.795 625.248Q844.01 624.552 843.207 623.876Q842.404 623.199 841.585 622.542C824.901 609.252 804.825 602.766 783.519 604.205ZM206.976 604.734C182.614 605.829 160.051 614.313 143.325 632.522C128.344 648.829 119.429 671.224 120.548 693.476Q120.598 694.529 120.673 695.58Q120.749 696.631 120.85 697.68Q120.952 698.729 121.079 699.775Q121.207 700.821 121.36 701.864Q121.513 702.907 121.693 703.945Q121.872 704.984 122.076 706.018Q122.281 707.052 122.511 708.08Q122.742 709.109 122.997 710.131Q123.253 711.153 123.534 712.169Q123.815 713.185 124.121 714.194Q124.427 715.202 124.758 716.203Q125.089 717.203 125.444 718.196Q125.8 719.188 126.18 720.171Q126.56 721.154 126.964 722.127Q127.368 723.101 127.796 724.064Q128.224 725.027 128.676 725.979Q129.128 726.931 129.603 727.872Q130.079 728.812 130.577 729.741Q131.076 730.669 131.597 731.585Q132.118 732.501 132.662 733.404Q133.206 734.307 133.772 735.196Q134.338 736.085 134.926 736.96Q135.513 737.835 136.123 738.695Q136.732 739.555 137.362 740.399Q137.993 741.244 138.644 742.073Q139.295 742.901 139.966 743.714Q140.638 744.526 141.329 745.322Q142.02 746.117 142.731 746.895Q143.442 747.674 144.172 748.434Q144.902 749.194 145.65 749.936Q146.399 750.678 147.165 751.402Q147.932 752.125 148.716 752.829C163.158 765.746 183.317 774.588 202.899 774.544C226.145 774.83 248.422 766.441 265.107 750.055Q265.851 749.325 266.576 748.577Q267.301 747.828 268.007 747.062Q268.713 746.296 269.4 745.513Q270.087 744.729 270.754 743.929Q271.421 743.128 272.068 742.312Q272.715 741.495 273.342 740.662Q273.968 739.829 274.573 738.981Q275.179 738.133 275.763 737.271Q276.347 736.408 276.909 735.531Q277.472 734.653 278.012 733.762Q278.552 732.872 279.07 731.967Q279.588 731.063 280.083 730.146Q280.579 729.23 281.051 728.301Q281.523 727.372 281.972 726.432Q282.421 725.492 282.846 724.54Q283.271 723.589 283.673 722.628Q284.074 721.666 284.452 720.695Q284.829 719.724 285.182 718.743Q285.535 717.763 285.863 716.774Q286.192 715.785 286.495 714.788Q286.799 713.792 287.078 712.788Q287.356 711.784 287.61 710.773Q287.864 709.762 288.092 708.746Q288.32 707.729 288.523 706.707Q288.726 705.685 288.903 704.658Q289.081 703.631 289.232 702.601Q289.384 701.57 289.51 700.535Q289.636 699.501 289.736 698.464Q289.836 697.427 289.91 696.387Q289.984 695.348 290.032 694.307Q290.08 693.266 290.103 692.225Q290.125 691.183 290.121 690.141C290.231 667.522 282.078 646.393 265.953 630.371C249.889 614.408 229.56 605.522 206.976 604.734ZM283.247 628.443C297.015 648.642 299.893 661.111 303.905 684.815C322.654 684.262 341.504 684.569 360.261 684.568L458.609 684.612C536.39 684.596 614.238 683.9 692.013 684.895C692.106 679.16 693.312 673.063 694.48 667.459C698.092 653.512 703.43 641.322 711.754 629.515C660.183 628.576 608.481 629.329 556.898 629.338L283.247 628.443ZM617.391 304.692C615.678 304.912 614.797 304.75 613.516 305.952C612.175 310.827 613.099 348.031 613.096 355.762L613.068 414.033C613.06 424.588 612.628 435.302 613.172 445.831L804.995 445.819L809.786 445.806C805.685 437.483 800.442 429.773 795.457 421.963Q787.569 409.584 779.928 397.051C761.037 366.268 742.596 334.923 722.412 304.966C715.235 304.335 707.953 304.577 700.752 304.575L667.165 304.566L636.523 304.492C630.2 304.468 623.695 304.183 617.391 304.692ZM876.71 628.746L866.381 629.064C878.836 646.8 885.02 662.592 887.587 684.074Q910.27 684.519 932.957 684.554C941.184 684.606 950.039 685.31 958.192 684.391C962.269 683.931 965.991 683.017 969.657 681.116C976.241 676.809 980.163 670.912 981.699 663.221C983.677 653.32 982.735 639.008 982.19 628.914C947.051 629.146 911.826 628.093 876.71 628.746ZM42.1499 630.132Q41.907 638.88 41.9298 647.63C41.9116 658.34 41.2697 669.156 49.1433 677.654C55.6463 684.673 65.138 686.23 74.2314 686.408C85.0172 686.62 95.8634 686.021 106.656 685.957C107.799 680.467 108.294 674.911 109.107 669.371C112.628 654.917 118.448 642.878 126.793 630.576C107.18 629.89 87.4787 630.159 67.8521 630.188C59.5862 630.2 50.2976 631.05 42.1499 630.132Z"/>
	<path transform="scale(3.5752 3.5752)" d="M203.48 650.219C203.772 650.173 204.061 650.11 204.355 650.082C212.491 649.32 222.94 652.857 229.416 657.698C237.703 663.894 243.228 673.59 244.672 683.797C246.177 694.441 243.364 705.794 236.826 714.354C229.522 723.914 219.595 727.933 207.965 729.456C197.936 729.593 187.872 727.341 179.973 720.883C171.715 714.131 166.738 704.06 165.807 693.489C164.881 682.98 167.374 672.917 174.25 664.788C181.92 655.721 191.814 651.28 203.48 650.219ZM203.285 663.147C195.342 664.673 188.816 667.714 184.062 674.648C180.091 680.437 178.158 687.767 179.574 694.713C181.02 701.811 185.375 708.648 191.601 712.439C195.951 715.087 201.976 716.652 207.116 716.339C215.16 715.011 222.216 711.703 227.054 704.803C231.13 698.99 232.419 691.659 231.035 684.736C229.63 677.711 225.705 671.497 219.626 667.602C214.654 664.416 209.119 663.238 203.285 663.147Z"/>
	<path transform="scale(3.5752 3.5752)" d="M785.803 649.676C794.889 648.604 805.138 651.26 812.531 656.627Q813.327 657.207 814.093 657.826Q814.859 658.445 815.594 659.101Q816.329 659.756 817.031 660.448Q817.732 661.139 818.399 661.864Q819.066 662.589 819.696 663.346Q820.326 664.103 820.918 664.891Q821.51 665.678 822.062 666.493Q822.614 667.309 823.126 668.151Q823.637 668.992 824.106 669.858Q824.576 670.724 825.002 671.612Q825.428 672.5 825.809 673.408Q826.191 674.316 826.527 675.242Q826.864 676.168 827.154 677.109Q827.444 678.05 827.688 679.005Q827.931 679.959 828.128 680.924Q828.324 681.889 828.472 682.863C830.158 693.47 827.523 703.903 821.098 712.501C814.427 721.43 805.07 726.677 794.123 728.337C784.266 729.243 773.825 726.722 765.804 720.853Q765.048 720.308 764.32 719.726Q763.593 719.144 762.895 718.526Q762.197 717.908 761.532 717.256Q760.866 716.604 760.234 715.919Q759.601 715.235 759.004 714.519Q758.407 713.804 757.847 713.059Q757.286 712.315 756.763 711.543Q756.241 710.771 755.758 709.974Q755.275 709.178 754.832 708.358Q754.389 707.538 753.988 706.696Q753.587 705.855 753.229 704.995Q752.871 704.135 752.556 703.257Q752.241 702.38 751.971 701.489Q751.7 700.597 751.475 699.692Q751.249 698.788 751.07 697.874Q750.89 696.959 750.756 696.037Q750.6 694.99 750.497 693.937Q750.394 692.883 750.344 691.826Q750.294 690.769 750.296 689.71Q750.299 688.652 750.354 687.595Q750.409 686.538 750.517 685.485Q750.625 684.432 750.785 683.385Q750.946 682.339 751.158 681.302Q751.37 680.265 751.634 679.24Q751.898 678.215 752.212 677.204Q752.527 676.194 752.892 675.2Q753.256 674.206 753.67 673.232Q754.084 672.258 754.546 671.306Q755.007 670.353 755.516 669.425Q756.025 668.497 756.58 667.595Q757.134 666.694 757.733 665.821Q758.332 664.948 758.973 664.106C765.737 655.349 775.007 651.009 785.803 649.676ZM787.786 662.669C780.22 663.793 773.781 666.443 768.957 672.744C764.524 678.533 762.136 686.355 763.387 693.6Q763.502 694.237 763.648 694.867Q763.794 695.498 763.97 696.121Q764.147 696.743 764.353 697.357Q764.56 697.97 764.796 698.573Q765.032 699.175 765.297 699.766Q765.562 700.356 765.855 700.933Q766.149 701.51 766.47 702.072Q766.791 702.634 767.139 703.179Q767.487 703.725 767.861 704.253Q768.235 704.781 768.635 705.291Q769.034 705.8 769.458 706.289Q769.881 706.778 770.328 707.247Q770.775 707.715 771.244 708.161Q771.713 708.606 772.203 709.029Q772.694 709.452 773.204 709.85Q773.714 710.248 774.243 710.621C779.053 713.955 785.276 715.643 791.113 715.415C799.068 714.072 806.036 711.064 810.882 704.239C815.087 698.318 816.457 690.657 815.157 683.568C813.934 676.903 810.422 670.737 804.735 666.908C799.934 663.675 793.569 662.079 787.786 662.669Z"/>
</svg>
