<?xml version="1.0" encoding="utf-8" ?>
<svg xmlns="http://www.w3.org/2000/svg" xmlns:xlink="http://www.w3.org/1999/xlink" width="3661" height="3661">
	<path transform="matrix(3.5752 0 0 3.5752 -0.00390625 0)" d="M506.858 50.1856C507 50.1645 507.142 50.1412 507.284 50.1223C522.345 48.1262 539.859 54.2088 551.37 63.8453C560.869 71.7967 567.905 83.3368 575.046 93.3655C593.054 118.654 614.834 152.477 639.313 171.434C648.006 178.165 658.437 183.695 669.528 184.833C682.134 186.126 696.186 181.287 708.552 178.834L755.68 169.684C765.813 167.726 776.045 165.391 786.293 164.138C804.084 161.962 822.418 165.978 836.662 177.156C853.168 190.11 861.716 210.291 860.732 231.133C860.115 244.196 856.774 257.32 854.113 270.082L843.509 320.092C840.862 332.567 837.686 345.712 839.359 358.517C840.646 368.371 844.981 379.038 851.183 386.826C860.556 398.599 874.157 406.781 886.214 415.546L918.215 439.058C927.119 445.465 936.303 451.559 944.969 458.283C960.496 470.33 970.746 484.626 973.121 504.508C975.592 525.188 968.888 544.795 953.531 559.008C943.862 567.956 932.257 575.009 921.587 582.705L877.571 614.972C867.919 621.929 857.256 628.701 849.92 638.227C843.498 646.566 839.159 657.095 838.348 667.622C837.422 679.652 841 692.42 843.459 704.143Q848.072 726.408 852.946 748.617C855.631 760.414 858.921 772.276 860.474 784.283C862.867 802.782 858.74 820.588 847.204 835.395C833.431 853.075 813.056 862.481 790.647 861.013C778.029 860.186 765.529 856.844 753.191 854.212Q727.903 848.789 702.552 843.663C690.1 841.148 677.249 838.35 664.497 840.039C654.28 841.393 645.062 845.104 636.984 851.513C625.232 860.837 616.329 874.839 607.3 886.723L573.095 931.9C568.671 937.808 564.539 943.957 560.027 949.792C549.499 963.408 536.174 970.646 519.118 972.876C507.972 973.815 498.079 973.247 487.789 968.495C481.111 965.412 475.32 961.043 470.039 955.959C459.955 946.25 451.891 934.777 443.639 923.536L413.061 881.329C405.494 870.93 397.884 859.685 387.654 851.71C378.721 844.745 366.711 840.235 355.406 839.522C341.464 838.643 327.424 842.762 313.861 845.487L265.117 854.888C255.347 856.794 245.455 859.323 235.581 860.531C218.869 862.576 200.184 856.206 187.097 845.891Q185.774 844.837 184.509 843.714Q183.244 842.591 182.039 841.402Q180.835 840.214 179.696 838.964Q178.556 837.714 177.484 836.405Q176.412 835.096 175.411 833.732Q174.41 832.369 173.482 830.954Q172.554 829.539 171.703 828.078Q170.851 826.616 170.078 825.111C157.143 800.501 164.274 779.086 169.635 753.748L180.388 702.378C182.818 690.599 185.819 677.912 184.267 665.847C182.695 653.632 176.893 642.561 168.822 633.39C158.915 622.134 145.027 613.81 132.832 605.158C115.52 592.875 97.9316 580.87 81.1551 567.862C65.4812 555.709 53.4015 541.598 50.9393 521.25Q50.5279 517.876 50.4657 514.478Q50.4034 511.08 50.6911 507.694Q50.9787 504.308 51.6132 500.969Q52.2477 497.63 53.2222 494.374C61.058 468.293 83.3322 454.89 104.261 440.047C116.418 431.426 128.243 422.357 140.389 413.723C151.165 406.063 162.353 398.632 170.501 388.022Q171.938 386.123 173.235 384.126Q174.532 382.129 175.682 380.044Q176.832 377.959 177.83 375.796Q178.828 373.634 179.668 371.406Q180.508 369.178 181.186 366.895Q181.864 364.612 182.376 362.287Q182.889 359.961 183.233 357.605Q183.578 355.249 183.752 352.874C184.823 338.037 180.633 322.658 177.691 308.191L169.699 267.949C167.673 257.94 165.282 247.847 163.972 237.718C161.755 220.586 165.592 202.517 176.29 188.709Q177.387 187.302 178.558 185.955Q179.728 184.608 180.969 183.326Q182.211 182.044 183.518 180.83Q184.826 179.616 186.197 178.473Q187.568 177.331 188.998 176.264Q190.428 175.196 191.913 174.207Q193.398 173.217 194.934 172.309Q196.47 171.4 198.052 170.575C222.387 157.95 245.991 165.345 271.033 170.607C286.542 173.865 302.137 176.704 317.629 180.033C330.286 182.753 343.328 186.255 356.365 184.541C389.283 180.214 410.527 145.297 428.482 120.751Q443.546 100.175 458.985 79.8776C472.642 62.0629 484.188 53.1981 506.858 50.1856ZM508.346 65.1653C494.135 66.6174 483.287 73.8782 474.467 84.7281C468.601 91.9446 463.536 99.7918 458.036 107.285Q443.672 126.648 429.097 145.854C418.451 159.926 407.519 174.826 393.196 185.405C382.077 193.618 369.461 198.733 355.686 200.159C337.621 202.029 319.031 196.072 301.502 192.391L255.6 182.987C245.454 180.923 234.686 177.818 224.259 178.73Q223.038 178.832 221.824 178.994Q220.609 179.157 219.405 179.38Q218.2 179.603 217.008 179.887Q215.817 180.17 214.64 180.513Q213.464 180.856 212.307 181.258Q211.149 181.659 210.013 182.118Q208.877 182.577 207.766 183.093Q206.655 183.608 205.57 184.179Q204.486 184.749 203.432 185.373Q202.378 185.998 201.356 186.674Q200.335 187.35 199.348 188.077Q198.362 188.804 197.413 189.579Q196.465 190.354 195.556 191.176Q194.648 191.998 193.782 192.864Q192.915 193.731 192.094 194.639Q191.272 195.548 190.497 196.497C181.828 207.115 177.143 220.327 178.671 234.018C179.706 243.284 181.784 252.512 183.544 261.666C185.952 274.191 188.261 286.715 190.993 299.177C199.195 336.596 207.291 366.342 180.883 399.47C170.108 412.986 154.031 422.534 140.244 432.744C128.033 441.787 115.975 451.077 103.639 459.946C94.1572 466.763 83.3238 472.971 76.0828 482.313C68.4326 492.182 64.5135 505.673 65.8665 518.096C67.4827 532.938 75.5798 544.103 87.0061 553.156C95.2775 559.709 104.177 565.602 112.794 571.704Q131.761 585.064 150.395 598.886C161.731 607.239 173.892 615.466 182.873 626.441C191.503 636.989 197.175 649.183 198.807 662.757C201.31 683.573 195.254 704.068 191.002 724.251L182.035 767.352C179.917 777.507 176.514 788.392 177.548 798.847C178.984 813.365 186.556 826.131 197.93 835.138C209.152 844.023 222.418 846.852 236.481 845.165C246.532 843.96 256.567 841.433 266.499 839.433L307.937 831.409C340.64 824.913 367.814 817.733 396.977 840.28C412.486 852.27 422.938 870.002 434.404 885.634L462.135 922.892C469.357 932.674 476.485 944.425 486.939 951.088C497.258 957.665 507.334 958.654 519.294 957.896C526.651 956.045 533.774 953.595 539.813 948.856C548.152 942.311 553.841 932.727 560.122 924.31L593.432 880.024C602.796 867.502 611.976 853.216 623.703 842.787Q625.223 841.41 626.819 840.122Q628.415 838.835 630.082 837.64Q631.749 836.446 633.481 835.349Q635.214 834.252 637.006 833.256Q638.799 832.259 640.645 831.367Q642.492 830.475 644.386 829.69Q646.281 828.905 648.217 828.229Q650.153 827.554 652.125 826.99C660.509 824.683 669.727 823.795 678.404 824.282C693.479 825.128 708.284 829.389 722.984 832.579C737.36 835.699 751.855 838.287 766.254 841.306C777.287 843.619 789.198 847.087 800.526 845.866C816.279 844.169 831.106 833.939 839.217 820.487Q840.025 819.138 840.746 817.741Q841.466 816.343 842.096 814.902Q842.725 813.461 843.261 811.983Q843.797 810.505 844.237 808.995Q844.677 807.486 845.02 805.951Q845.362 804.416 845.606 802.863Q845.85 801.309 845.993 799.744Q846.137 798.178 846.18 796.606C846.553 785.053 843.563 773.459 841.099 762.244L830.516 714.092C827.512 700.289 823.451 685.964 823.597 671.752Q823.607 669.612 823.743 667.475Q823.879 665.339 824.14 663.215Q824.402 661.091 824.788 658.985Q825.174 656.88 825.684 654.801Q826.193 652.722 826.824 650.677Q827.456 648.632 828.206 646.627Q828.957 644.623 829.824 642.666Q830.692 640.709 831.673 638.807Q832.817 636.592 834.122 634.469Q835.427 632.345 836.887 630.325Q838.347 628.304 839.953 626.398Q841.559 624.491 843.302 622.71C853.846 612.052 866.973 603.361 879.113 594.64L921.044 564.472C931.216 557.227 942.8 550.255 950.088 539.888C958.218 528.324 960.425 512.578 956.87 499.011C954.951 491.688 950.952 485.009 945.888 479.43C938.035 470.778 927.885 464.436 918.433 457.703C906.562 449.247 894.937 440.459 883.115 431.937C868.778 421.601 852.281 411.752 840.791 398.204Q839.522 396.689 838.337 395.108Q837.152 393.526 836.054 391.883Q834.957 390.239 833.95 388.539Q832.943 386.838 832.031 385.085Q831.118 383.333 830.302 381.533Q829.485 379.733 828.768 377.892Q828.05 376.051 827.434 374.173Q826.818 372.295 826.304 370.387Q825.485 367.427 824.913 364.41Q824.34 361.393 824.019 358.338Q823.698 355.284 823.629 352.214Q823.561 349.143 823.746 346.078C824.486 331.547 828.27 317.122 831.374 302.946L841.376 256.61C843.734 245.855 847.279 234.056 846.117 222.996C844.411 206.761 833.983 192.713 819.988 184.718Q818.72 183.996 817.41 183.353Q816.1 182.709 814.754 182.147Q813.407 181.585 812.029 181.106Q810.65 180.627 809.245 180.233Q807.84 179.839 806.414 179.531Q804.987 179.224 803.545 179.004Q802.102 178.784 800.649 178.652Q799.196 178.521 797.737 178.478C787.068 178.18 776.16 181.197 765.768 183.349L720.957 192.371C704.887 195.672 687.951 200.677 671.452 199.96Q667.865 199.78 664.315 199.236Q660.765 198.693 657.288 197.791Q653.812 196.89 650.445 195.641Q647.078 194.391 643.855 192.806C618.948 180.788 602.828 156.869 587.026 135.2L561.766 100.559C555.164 91.5348 548.587 80.8192 539.524 74.1128C530.641 67.5394 519.327 64.6126 508.346 65.1653Z"/>
	<path transform="matrix(3.5752 0 0 3.5752 -0.00390625 0)" d="M505.017 282.211C506.366 281.965 507.759 281.978 509.128 281.934C522.614 281.5 536.234 283.052 549.509 285.329C596.578 293.401 637.067 314.38 671.819 346.967C714.068 386.585 740.319 445.248 741.992 503.145Q742.085 506.033 742.106 508.922Q742.127 511.812 742.076 514.701Q742.025 517.59 741.902 520.477Q741.779 523.364 741.584 526.247Q741.389 529.13 741.122 532.007Q740.856 534.884 740.517 537.754Q740.179 540.623 739.769 543.484Q739.359 546.344 738.879 549.193Q738.398 552.042 737.846 554.879Q737.294 557.715 736.672 560.537Q736.049 563.359 735.357 566.164Q734.665 568.969 733.902 571.756Q733.14 574.544 732.309 577.311Q731.478 580.078 730.578 582.824Q729.677 585.57 728.709 588.292Q727.741 591.015 726.705 593.712Q725.669 596.41 724.567 599.081Q723.464 601.751 722.295 604.394Q721.126 607.036 719.892 609.649Q718.657 612.262 717.358 614.843Q716.059 617.424 714.696 619.971Q713.333 622.519 711.907 625.032Q710.481 627.545 708.992 630.022Q707.504 632.499 705.955 634.938Q704.405 637.377 702.795 639.776Q701.185 642.176 699.516 644.534Q697.847 646.893 696.119 649.209Q694.392 651.525 692.607 653.798Q690.823 656.071 688.982 658.298Q687.141 660.525 685.245 662.706Q683.35 664.887 681.4 667.02Q679.451 669.152 677.449 671.236Q675.523 673.244 673.549 675.205Q671.575 677.166 669.554 679.078Q667.533 680.991 665.467 682.855Q663.4 684.718 661.29 686.531Q659.179 688.344 657.025 690.105Q654.871 691.867 652.675 693.576Q650.48 695.285 648.243 696.941Q646.007 698.596 643.732 700.198Q641.456 701.799 639.142 703.345Q636.829 704.891 634.479 706.38Q632.129 707.87 629.743 709.302Q627.358 710.734 624.938 712.109Q622.519 713.483 620.067 714.799Q617.616 716.115 615.133 717.371Q612.65 718.627 610.138 719.823Q607.625 721.019 605.085 722.154Q602.544 723.289 599.977 724.362Q597.41 725.436 594.818 726.447Q592.226 727.458 589.61 728.406Q586.994 729.354 584.356 730.239Q581.718 731.124 579.059 731.945Q576.401 732.766 573.723 733.523Q571.046 734.28 568.351 734.971Q565.655 735.663 562.944 736.29Q560.233 736.916 557.508 737.477Q554.783 738.038 552.045 738.534Q549.307 739.029 546.557 739.458Q543.808 739.886 541.049 740.249Q538.291 740.611 535.524 740.907Q532.757 741.203 529.984 741.432Q527.211 741.661 524.434 741.823Q521.656 741.985 518.875 742.08Q516.183 742.123 513.49 742.104Q510.798 742.085 508.106 742.004Q505.415 741.924 502.726 741.781Q500.037 741.639 497.352 741.435Q494.667 741.231 491.988 740.965Q489.308 740.699 486.635 740.372Q483.963 740.045 481.298 739.657Q478.634 739.269 475.979 738.82Q473.324 738.37 470.68 737.86Q468.036 737.35 465.405 736.78Q462.773 736.209 460.155 735.578Q457.538 734.947 454.935 734.257Q452.333 733.566 449.747 732.816Q447.161 732.065 444.593 731.256Q442.024 730.446 439.476 729.578Q436.927 728.71 434.398 727.784Q431.87 726.857 429.364 725.873Q426.857 724.889 424.374 723.848Q421.891 722.806 419.433 721.708Q416.974 720.61 414.541 719.456Q412.109 718.302 409.703 717.092Q407.297 715.882 404.92 714.618Q402.543 713.353 400.195 712.034Q397.848 710.716 395.531 709.343Q393.214 707.971 390.93 706.546Q388.645 705.121 386.394 703.644Q384.143 702.167 381.926 700.638Q379.709 699.11 377.528 697.531Q375.347 695.952 373.202 694.323Q371.058 692.695 368.951 691.018Q366.845 689.34 364.778 687.615Q362.71 685.89 360.683 684.118Q358.563 682.29 356.488 680.409Q354.414 678.529 352.387 676.598Q350.359 674.667 348.381 672.686Q346.402 670.705 344.473 668.676Q342.544 666.647 340.666 664.57Q338.788 662.494 336.961 660.372Q335.135 658.249 333.362 656.083Q331.589 653.916 329.871 651.706Q328.152 649.495 326.488 647.243Q324.825 644.991 323.218 642.699Q321.611 640.406 320.061 638.074Q318.511 635.743 317.02 633.373Q315.528 631.004 314.095 628.598Q312.663 626.193 311.291 623.752Q309.918 621.312 308.607 618.838Q307.295 616.364 306.046 613.859Q304.796 611.354 303.609 608.818Q302.421 606.282 301.297 603.718Q300.173 601.154 299.113 598.563Q298.053 595.971 297.057 593.355Q296.061 590.738 295.131 588.097Q294.2 585.457 293.336 582.794Q292.471 580.131 291.672 577.447Q290.874 574.764 290.142 572.061Q289.41 569.359 288.745 566.639Q288.081 563.919 287.484 561.184Q286.887 558.449 286.358 555.699Q285.829 552.95 285.368 550.188Q284.907 547.427 284.515 544.654Q284.123 541.882 283.799 539.101Q283.476 536.32 283.222 533.532Q282.967 530.744 282.782 527.95Q282.587 525.104 282.463 522.253Q282.339 519.403 282.286 516.551Q282.233 513.698 282.251 510.845Q282.268 507.993 282.357 505.141Q282.446 502.289 282.605 499.441Q282.765 496.593 282.995 493.749Q283.226 490.905 283.527 488.068Q283.828 485.231 284.199 482.403Q284.57 479.574 285.012 476.755Q285.454 473.937 285.965 471.13Q286.477 468.323 287.058 465.53Q287.639 462.737 288.289 459.959Q288.94 457.182 289.659 454.421Q290.378 451.66 291.166 448.918Q291.953 446.176 292.809 443.454Q293.665 440.733 294.588 438.033Q295.51 435.334 296.5 432.658Q297.49 429.982 298.546 427.332Q299.602 424.681 300.724 422.058Q301.845 419.435 303.032 416.841Q304.218 414.246 305.468 411.682Q306.719 409.117 308.033 406.585Q309.347 404.053 310.723 401.554Q312.1 399.055 313.538 396.591Q314.976 394.127 316.475 391.7Q317.974 389.272 319.533 386.883Q321.092 384.493 322.709 382.143Q324.327 379.793 326.003 377.484Q327.678 375.175 329.411 372.909Q331.143 370.642 332.932 368.419Q334.72 366.197 336.563 364.019Q338.406 361.841 340.303 359.71C383.626 310.646 440.172 286.25 505.017 282.211ZM506.466 297.699C492.947 298.603 479.505 299.833 466.22 302.606Q464.12 303.056 462.029 303.548Q459.938 304.04 457.858 304.575Q455.777 305.109 453.708 305.686Q451.639 306.263 449.582 306.881Q447.525 307.5 445.481 308.16Q443.437 308.82 441.406 309.521Q439.376 310.223 437.361 310.965Q435.345 311.708 433.345 312.491Q431.345 313.274 429.361 314.098Q427.377 314.922 425.411 315.786Q423.444 316.649 421.495 317.553Q419.546 318.456 417.616 319.399Q415.686 320.342 413.776 321.324Q411.865 322.305 409.975 323.326Q408.085 324.346 406.216 325.405Q404.347 326.463 402.5 327.559Q400.652 328.656 398.828 329.789Q397.003 330.922 395.202 332.093Q393.401 333.263 391.624 334.469Q389.846 335.676 388.094 336.918Q386.342 338.161 384.615 339.438Q382.888 340.716 381.188 342.028Q379.488 343.341 377.814 344.687Q376.141 346.034 374.495 347.414Q372.849 348.795 371.232 350.208Q369.614 351.621 368.026 353.067Q366.437 354.513 364.879 355.991Q363.32 357.469 361.791 358.978Q360.263 360.487 358.765 362.027Q357.268 363.567 355.802 365.137Q354.336 366.707 352.902 368.306Q351.468 369.906 350.067 371.534Q348.309 373.518 346.6 375.546Q344.892 377.574 343.234 379.643Q341.577 381.713 339.971 383.823Q338.366 385.933 336.813 388.083Q335.261 390.232 333.763 392.42Q332.264 394.607 330.821 396.832Q329.377 399.056 327.99 401.315Q326.602 403.575 325.271 405.868Q323.94 408.161 322.667 410.487Q321.393 412.812 320.178 415.169Q318.963 417.526 317.807 419.912Q316.651 422.298 315.555 424.712Q314.459 427.127 313.423 429.567Q312.387 432.008 311.412 434.474Q310.437 436.94 309.524 439.429Q308.611 441.918 307.76 444.43Q306.91 446.941 306.122 449.473Q305.334 452.004 304.609 454.555Q303.884 457.105 303.223 459.673Q302.562 462.241 301.966 464.824Q301.369 467.408 300.836 470.005Q300.304 472.603 299.837 475.213Q299.369 477.823 298.967 480.443Q298.564 483.064 298.227 485.694Q297.89 488.324 297.619 490.962Q297.348 493.599 297.142 496.243Q296.936 498.886 296.797 501.534Q296.657 504.182 296.583 506.832Q296.509 509.483 296.502 512.134Q296.494 514.786 296.552 517.436Q296.61 520.087 296.735 522.736Q296.859 525.384 297.049 528.029Q297.239 530.594 297.49 533.154Q297.742 535.713 298.057 538.266Q298.371 540.818 298.747 543.363Q299.124 545.907 299.562 548.441Q300 550.976 300.5 553.499Q301 556.021 301.561 558.531Q302.122 561.041 302.744 563.537Q303.367 566.032 304.049 568.512Q304.732 570.992 305.475 573.454Q306.218 575.916 307.021 578.36Q307.824 580.803 308.686 583.226Q309.548 585.65 310.469 588.051Q311.389 590.453 312.369 592.831Q313.348 595.209 314.384 597.563Q315.421 599.917 316.515 602.244Q317.609 604.572 318.759 606.873Q319.909 609.173 321.115 611.445Q322.321 613.717 323.581 615.958Q324.842 618.2 326.157 620.41Q327.473 622.621 328.841 624.798Q330.21 626.976 331.631 629.119Q333.052 631.263 334.525 633.371Q335.998 635.48 337.522 637.552Q339.046 639.623 340.62 641.658Q342.194 643.692 343.817 645.687Q345.44 647.682 347.111 649.637Q348.782 651.592 350.501 653.506Q352.219 655.419 353.984 657.291Q355.748 659.162 357.557 660.99Q359.367 662.817 361.22 664.6Q363.074 666.383 364.97 668.121Q366.867 669.858 368.805 671.549C411.303 708.342 462.169 727.765 518.506 726.781Q521.183 726.689 523.857 726.53Q526.531 726.371 529.2 726.146Q531.869 725.922 534.532 725.63Q537.195 725.339 539.85 724.982Q542.504 724.625 545.149 724.202Q547.794 723.779 550.428 723.291Q553.062 722.803 555.683 722.249Q558.303 721.696 560.91 721.077Q563.516 720.459 566.106 719.776Q568.696 719.093 571.269 718.346Q573.841 717.599 576.394 716.789Q578.947 715.979 581.479 715.105Q584.012 714.231 586.521 713.295Q589.031 712.359 591.517 711.361Q594.003 710.363 596.463 709.303Q598.923 708.244 601.356 707.124Q603.789 706.003 606.194 704.823Q608.599 703.643 610.973 702.404Q613.348 701.164 615.691 699.866Q618.034 698.568 620.344 697.212Q622.654 695.856 624.93 694.444Q627.206 693.031 629.446 691.562Q631.686 690.094 633.889 688.57Q636.092 687.046 638.257 685.468Q640.421 683.89 642.546 682.259Q644.67 680.628 646.754 678.944Q648.837 677.261 650.879 675.526Q652.92 673.792 654.917 672.007Q656.915 670.222 658.867 668.388Q660.82 666.555 662.726 664.673Q664.633 662.792 666.492 660.863Q668.351 658.935 670.162 656.961Q671.916 655.049 673.623 653.095Q675.331 651.141 676.991 649.147Q678.651 647.153 680.262 645.119Q681.874 643.086 683.436 641.014Q684.998 638.942 686.51 636.833Q688.022 634.724 689.482 632.579Q690.943 630.435 692.351 628.256Q693.76 626.077 695.116 623.864Q696.471 621.652 697.773 619.407Q699.075 617.163 700.323 614.888Q701.571 612.613 702.763 610.308Q703.956 608.004 705.093 605.672Q706.229 603.339 707.31 600.98Q708.39 598.621 709.413 596.236Q710.437 593.852 711.402 591.443Q712.368 589.035 713.275 586.604Q714.182 584.173 715.031 581.721Q715.879 579.269 716.669 576.797Q717.458 574.326 718.188 571.835Q718.917 569.345 719.587 566.839Q720.256 564.332 720.865 561.809Q721.474 559.287 722.022 556.751Q722.57 554.215 723.057 551.666Q723.544 549.117 723.969 546.558Q724.395 543.998 724.758 541.429Q725.122 538.86 725.424 536.283Q725.725 533.706 725.965 531.122Q726.205 528.538 726.382 525.95Q726.56 523.361 726.675 520.769Q726.79 518.177 726.842 515.582Q726.895 512.988 726.885 510.393Q726.875 507.799 726.803 505.205Q726.723 502.586 726.579 499.969Q726.435 497.353 726.226 494.741Q726.018 492.128 725.745 489.522Q725.472 486.916 725.135 484.317Q724.798 481.719 724.398 479.129Q723.997 476.539 723.532 473.96Q723.068 471.381 722.54 468.814Q722.012 466.248 721.422 463.695Q720.831 461.142 720.177 458.604Q719.524 456.066 718.808 453.546Q718.093 451.025 717.315 448.522Q716.537 446.02 715.699 443.537Q714.86 441.055 713.96 438.594Q713.06 436.132 712.1 433.694Q711.14 431.256 710.12 428.842Q709.1 426.428 708.021 424.04Q706.942 421.652 705.805 419.291Q704.667 416.931 703.472 414.599Q702.277 412.267 701.025 409.965Q699.772 407.663 698.464 405.393Q697.155 403.122 695.791 400.885Q694.427 398.647 693.009 396.444Q691.59 394.241 690.117 392.073Q688.645 389.906 687.12 387.775Q685.594 385.644 684.017 383.552Q682.439 381.459 680.811 379.406Q679.182 377.353 677.504 375.341Q675.825 373.328 674.098 371.358Q672.37 369.388 670.595 367.46Q668.819 365.533 666.997 363.65Q665.174 361.767 663.306 359.93Q661.438 358.092 659.525 356.301C619.12 318.817 563.111 295.652 507.594 297.632C507.218 297.645 506.842 297.674 506.466 297.699Z"/>
	<path transform="matrix(3.5752 0 0 3.5752 -0.00390625 0)" d="M613.43 437.545C614.88 437.84 616.504 438.158 617.829 438.835C620.459 440.179 621.263 442.863 622.21 445.437C622.188 445.49 622.165 445.542 622.144 445.595C621.607 446.95 621.063 448.307 620.23 449.513C615.387 456.522 607.86 462.584 601.772 468.574L571.045 499.069L516.362 553.647C507.104 562.904 498.078 572.688 488.395 581.478C486.47 583.226 482.662 586.721 479.986 586.618C477.63 586.528 473.9 583.037 472.148 581.473C465.208 575.284 459.022 568.022 452.493 561.386L411.818 520.52C408.529 517.456 404.825 514.086 403.846 509.523C403.457 507.714 403.543 505.707 404.698 504.176C405.878 502.612 407.869 501.98 409.753 501.87C412.474 501.712 415.532 503.083 417.65 504.701C422.919 508.726 427.363 514.675 432.062 519.395C448.125 535.53 463.443 552.681 480.453 567.802C491.907 556.965 502.806 545.449 513.992 534.33L572.937 475.819L593.601 455.033C597.926 450.623 602.076 445.966 606.643 441.809C608.724 439.915 610.691 438.373 613.43 437.545Z"/>
</svg>
