<?xml version="1.0" encoding="utf-8" ?>
<svg xmlns="http://www.w3.org/2000/svg" xmlns:xlink="http://www.w3.org/1999/xlink" width="3661" height="3661">
	<path transform="matrix(3.5752 0 0 3.5752 -0.00390625 0)" d="M285.774 419.12C285.601 412.033 286.191 404.812 286.445 397.722L287.465 363.827L291.308 252.676Q292.201 226.351 292.738 200.016C293.014 188.726 291.959 172.027 295.102 161.441C297.926 159.109 301.407 157.846 304.828 156.645C318.278 151.925 332.059 147.99 345.65 143.69L410.261 122.995C438.249 114.101 465.973 104.232 494.044 95.6276C496.369 94.9149 499.551 93.6481 501.99 93.8031C511.944 94.4358 532.737 102.891 543.302 106.314L627.893 133.529Q651.257 140.97 674.695 148.17C684.041 151.031 693.814 153.484 702.92 157.028C704.639 157.697 706.28 158.197 707.437 159.724C708.547 161.189 708.629 164.207 708.766 166.058C709.524 176.314 709.04 186.771 709.321 197.064C709.953 220.262 710.743 243.494 711.051 266.698Q711.189 282.223 711.916 297.732C712.108 302.697 711.993 307.697 712.633 312.63C729.886 304.349 746.757 294.834 763.485 285.536C773.244 280.112 784.2 272.296 794.979 269.383C797.837 268.61 800.797 269.497 803.524 270.432C803.935 270.573 804.337 270.739 804.74 270.901L843.971 255.521C852.31 252.313 861.199 248.267 870.013 246.754C872.146 246.388 874.142 246.451 876.131 247.364C878.353 248.384 880.065 250.194 880.892 252.495C883.57 259.947 881.934 286.973 882.045 296.604C904.377 303.453 926.147 312.019 948.228 319.602C962.172 324.391 976.868 327.837 990.406 333.671C993.329 334.931 997.291 336.549 998.902 339.513C1000.92 343.223 1000.29 354.383 1000.35 358.818C1000.59 379.555 1000.01 400.374 999.993 421.124L999.413 610.801L999.213 681.645C999.189 692.213 1000.83 719.333 997.971 728.033C989.113 736.162 970.807 744.32 959.689 750.244L907.647 778.094L820.808 824.746C802.909 834.394 785.005 844.642 766.668 853.404C762.177 855.55 757.033 858.444 751.945 858.234C747.352 858.045 742.538 856.57 738.188 855.184C737.676 859.967 737.775 867.427 733.82 870.749C726.885 876.574 717.508 881.093 709.661 885.602L669.222 908.863Q648.655 920.65 628.309 932.815C617.064 939.533 605.772 946.717 593.937 952.344C580.101 950.075 566.581 945.135 553.2 941.017C539.456 936.787 525.592 932.902 511.817 928.765C479.829 919.158 447.26 911.086 415.634 900.338C413.384 899.573 410.196 898.768 408.723 896.813C406.023 893.233 406.919 885.078 406.947 880.657C390.856 887.87 374.395 894.075 357.955 900.43L303.494 921.652C286.307 928.374 261.866 940.168 244.678 943.74C241.841 944.329 238.649 943.259 236.007 942.244C226.491 938.587 217.024 932.543 208.023 927.694Q182.157 913.737 156.149 900.049L72.1449 856.407L47.1875 843.409C42.4476 840.977 37.4771 838.844 32.8697 836.174C29.9381 834.475 26.8325 832.221 25.3992 829.041C24.5392 827.132 24.3769 824.905 24.5397 822.842C23.4044 813.805 24.4825 802.269 24.5078 792.864L24.4997 727.853L24.4729 604.698C24.4603 583.492 23.7727 562.141 24.4793 540.954C24.2661 533.94 23.2835 525.166 25.9382 518.546C30.5953 514.42 36.8518 511.937 42.4794 509.379C58.5283 502.087 75.0416 495.785 91.3256 489.038L184.955 450.276L237.004 428.838C249.119 423.756 261.312 417.815 273.935 414.172C277.985 415.631 281.861 417.332 285.774 419.12ZM980.746 429.493C953.2 443.678 925.25 456.843 897.472 470.537Q873.341 482.688 849.345 495.1L795.952 522.636C783.572 529.097 771.032 536.198 758.137 541.578L758.126 763.29Q758.071 789.646 758.414 816C758.471 821.512 757.468 831.018 758.995 836.112L759.337 836.407L865.435 779.734Q903.405 758.995 941.742 738.945C954.787 732.074 967.764 724.968 981.003 718.487L981.544 523.575L981.745 471.127C981.857 457.431 982.239 443.648 981.501 429.968C981.256 429.8 981.037 429.552 980.746 429.493ZM247.844 635.569C247.322 636.326 247.221 636.747 247.153 637.672C246.706 643.684 247.038 649.932 247.04 655.975L247.102 691.159L247.135 791.95L247.087 883.847C247.062 891.627 246.078 916.313 247.343 922.249C247.385 922.447 247.451 922.64 247.505 922.835C258.779 918.643 270.168 914.821 281.404 910.505L366.866 876.841C380.512 871.598 394.026 865.733 407.83 860.941C407.213 855.05 407.683 848.647 407.684 842.708L407.682 805.628L407.587 755.599C407.525 742.327 405.877 713.956 409.374 702.495C419.062 694.7 431.378 688.787 442.269 682.797Q464.474 670.638 486.513 658.181Q487.174 601.281 486.361 544.383C465.181 551.34 444.332 560.325 423.534 568.412L310.338 612.392C296.794 617.645 283.139 622.583 269.552 627.718C262.683 630.314 255.015 634.153 247.844 635.569ZM43.0894 534.74C41.6192 583.469 42.7227 632.041 42.713 680.77C42.7037 727.357 41.6908 773.858 42.7018 820.448L157.995 880.759Q185.651 894.705 213.068 909.115C221.378 913.449 230.287 917.46 238.271 922.32C238.861 902.655 238.345 882.829 238.179 863.154L238.016 791.25L238.062 692.975C238.036 673.926 237.736 654.853 237.989 635.807L182.842 606.96C175.097 602.835 167.072 598.889 159.572 594.338C158.766 607.595 159.306 620.919 159.322 634.194L159.074 691.472C159.086 700.128 159.576 708.984 159.173 717.616C159.064 719.962 159.019 722.959 157.748 724.957C151.876 726.283 138.33 717.138 132.905 714.289C129.519 712.511 125.644 711.02 122.481 708.931C119.991 707.286 118.566 704.561 118.062 701.678C116.812 694.514 117.588 677.225 117.562 668.858L117.682 610.838C117.761 598.128 118.085 585.338 117.617 572.635L72.2546 549.26C62.6085 544.316 52.9909 539.158 43.0894 534.74ZM312.319 181.654C310.342 191.438 310.722 202.028 310.391 212.001L308.833 267.218L305.795 357.498C304.942 381.766 303.933 405.836 303.995 430.132C327.768 441.654 350.356 455.065 373.789 467.177C412.28 487.071 451.368 505.913 489.476 526.552L493.938 528.886C494.818 515.308 494.37 501.63 494.153 488.035L493.427 435.381L491.417 240.685C478.282 235.556 464.812 231.369 451.419 226.972L395.137 208.501L350.423 193.761C337.771 189.515 325.246 185.032 312.319 181.654ZM690.162 180.139C673.437 186.194 656.513 191.398 639.608 196.898L582.187 216.08L534.396 232.149C526.132 234.932 517.616 238.314 509.174 240.438C509.822 251.183 509.28 261.99 509.437 272.748L510.201 348.686L512.001 538.761L512.157 607.977C512.195 617.678 511.137 633.671 513.269 642.538C527.344 634.471 541.187 625.531 555.776 618.449L555.999 470.824L555.996 426.687C555.991 418.385 555.587 409.855 556.238 401.585C556.47 398.629 557.067 394.882 559.264 392.673C565.293 386.611 590.278 375.894 599.407 371.301C630.835 355.49 662.583 340.307 693.618 323.727L691.614 213.898C691.503 208.044 691.972 184.479 690.891 180.989C690.78 180.632 690.405 180.422 690.162 180.139ZM797.047 288.14Q733.907 323.879 669.502 357.285C641.999 371.512 613.708 384.375 586.514 399.162C597.592 404.29 609.479 407.849 621.029 411.771L674.875 429.955Q697.896 437.734 720.832 445.759C730.451 449.141 740.1 453.001 749.92 455.747L753.126 454.273C774.583 444.088 795.57 432.721 816.631 421.743L868.49 395.353L918.12 369.972C933.823 362.061 949.813 354.309 964.968 345.389C953.259 340.789 941.291 336.789 929.433 332.593Q888.289 318.158 846.85 304.593L813.467 293.766C808.166 292.05 801.972 290.65 797.047 288.14ZM426.55 720.768C425.746 729.011 426.168 737.599 426.152 745.889L426.071 788.697L425.989 849.196C425.988 860.591 425.645 872.115 426.22 883.49C450.611 891.462 475.431 898.173 499.978 905.665Q528.853 914.472 557.893 922.721C566.705 925.281 575.472 928.382 584.372 930.565C585.572 876.62 584.984 822.45 584.659 768.489C556.253 758.155 526.54 750.536 497.519 742.076C473.812 735.165 450.389 727.225 426.55 720.768ZM574.603 484.957C573.261 500.996 574.075 517.671 574.047 533.794L574.006 622.074C593.272 627.705 612.197 634.46 631.505 639.942L692.933 657.45C706.936 661.385 726.634 665.346 739.003 672.418C739.394 678.57 739.923 684.784 739.863 690.951C739.77 700.588 739.034 710.189 739.014 719.839C738.936 757.92 738.315 796.097 739.001 834.163C742.234 835.056 745.574 835.835 748.735 836.947L749.456 836.72C750.205 820.537 749.636 804.174 749.625 787.972L749.53 697.3L749.498 595.943C749.494 578.248 749.972 560.373 749.352 542.7Q688.351 521.814 627.052 501.819L589.026 489.545C584.334 488.018 579.152 486.807 574.603 484.957ZM500.014 113.092L413.165 141.326C385.645 150.154 357.879 158.438 330.788 168.505C376.449 181.745 421.579 197.516 466.743 212.356C477.481 215.885 488.17 219.718 498.963 223.054C499.916 223.348 500.678 223.382 501.609 223.037L670.76 166.749C660.221 162.751 649.363 159.52 638.625 156.099L590.345 140.742L536.366 123.586C527.441 120.72 518.581 117.434 509.562 114.892C506.57 114.049 503.152 112.889 500.014 113.092ZM719.886 699.472Q686.382 718.043 653.165 737.124C636.54 746.715 620.002 756.75 603.081 765.794L602.954 868.426L602.957 905.551C602.963 911.389 602.652 917.435 602.988 923.254C603.031 923.99 603.291 924.524 603.657 925.146L604.224 925.538C618.66 917.449 632.584 908.567 646.818 900.149L720.016 857.306C720.799 849.477 720.473 841.439 720.485 833.573L720.541 795.152L720.623 733.74C720.636 724.013 720.999 714.171 720.702 704.457C720.653 702.846 720.86 700.758 719.886 699.472ZM394.12 489.218C361.711 502.421 329.96 516.921 298.025 531.2L228.38 561.964C208.607 570.811 189.054 580.4 169.016 588.626Q191.144 600.763 213.435 612.6C223.196 617.737 233.28 622.559 242.805 628.104L255.354 623.516Q329.381 595.697 403.107 567.086Q427.409 557.764 451.567 548.073C462.205 543.829 473.011 539.705 483.372 534.819C468.419 526.261 452.735 518.701 437.46 510.717C423.377 503.356 408.94 494.865 394.12 489.218ZM560.353 638.087C542.481 647.162 525.34 658.303 507.865 668.174L471.544 688.708C461.802 694.103 451.98 699.166 442.544 705.103C481.37 716.409 519.798 729.081 558.589 740.496C569.762 743.784 580.866 747.763 592.164 750.56Q626.637 730.308 661.332 710.441C677.385 701.285 693.819 692.639 709.271 682.478C677.068 671.92 644.397 662.974 611.92 653.329L578.515 643.376C572.584 641.587 566.415 639.224 560.353 638.087ZM283.63 430.447C268.737 435.858 254.123 442.148 239.441 448.106Q190.614 467.96 142.02 488.383L85.174 511.868C73.3506 516.762 60.8773 521.326 49.6308 527.432Q83.5694 545.696 118.372 562.253L122.756 564.006C136.624 558.567 150.152 552.132 163.82 546.196L254.067 506.741L310.837 482.046C323.48 476.6 336.635 471.457 348.793 465.012C328.5 451.882 305.312 443.666 284.904 430.852C284.213 430.418 284.494 430.55 283.63 430.447ZM981.443 359.57C965.971 366.522 950.981 374.302 935.863 381.979Q911.276 394.246 886.865 406.86Q824.082 438.561 761.975 471.565C761.87 479.968 760.451 511.813 762.643 518.377C773.058 513.93 782.991 507.922 793.009 502.634Q814.48 491.554 836.073 480.713L920.973 437.789C941.303 427.613 961.838 417.757 981.985 407.229C982.001 401.481 983.751 362.107 981.443 359.57ZM575.072 415.76C573.277 425.132 574.287 435.915 574.357 445.464C574.407 452.241 574.088 459.089 574.364 465.851C613.843 477.142 654.072 491.167 693.055 504.289L723.548 514.815C730.163 517.105 736.8 519.741 743.664 521.167C744.73 505.247 743.956 488.846 743.924 472.886C703.313 459.776 663.104 445.254 622.67 431.593C606.922 426.273 591.044 420.336 575.072 415.76ZM360.513 470.101L132.269 570.352C141.149 574.141 149.36 579.384 158.255 583.218C161.099 582.61 164.48 580.436 167.209 579.2L190.411 568.768L283.116 527.38Q315.349 512.974 347.806 499.079C360.111 493.805 372.827 488.919 384.819 482.988C376.747 478.654 368.497 474.585 360.513 470.101ZM125.921 577.182Q125.755 612.132 125.951 647.079C125.982 664.719 125.701 682.411 126.131 700.044C130.723 702.634 146.172 712.46 150.561 712.747C151.348 693.716 150.898 674.545 150.88 655.496C150.86 633.786 151.188 612.003 150.579 590.304C142.419 585.838 134.305 581.215 125.921 577.182ZM247.505 922.835C247.451 922.64 247.385 922.447 247.343 922.249C246.078 916.313 247.062 891.627 247.087 883.847L247.135 791.95L247.102 691.159L247.04 655.975C247.038 649.932 246.706 643.684 247.153 637.672C247.221 636.747 247.322 636.326 247.844 635.569L246.502 635.398C244.626 637.678 245.067 652.525 245.028 656.068C244.804 676.369 245.875 696.684 245.854 717L245.225 898.25C245.223 901.598 246.746 920.086 245.669 921.669L246.271 922.017L246.806 922.916L247.505 922.835ZM861.99 269.13L832.813 280.427C835.897 281.352 839.029 282.206 842.074 283.25C848.964 285.598 855.834 288.009 862.832 290.017C862.969 284.069 864.294 274.987 862.297 269.39L861.99 269.13ZM24.4793 540.954C23.7727 562.141 24.4603 583.492 24.4729 604.698L24.4997 727.853L24.5078 792.864C24.4825 802.269 23.4044 813.805 24.5397 822.842C24.7229 822.39 24.849 822.132 24.9646 821.678C26.2326 816.696 25.6479 801.627 25.6482 795.847L25.6341 745.395L25.4868 618.705C25.4749 594.523 25.8868 570.28 25.4057 546.105C25.3691 544.267 25.4228 542.587 24.4793 540.954Z"/>
	<path transform="matrix(3.5752 0 0 3.5752 -0.00390625 0)" d="M24.4793 540.954C25.4228 542.587 25.3691 544.267 25.4057 546.105C25.8868 570.28 25.4749 594.523 25.4868 618.705L25.6341 745.395L25.6482 795.847C25.6479 801.627 26.2326 816.696 24.9646 821.678C24.849 822.132 24.7229 822.39 24.5397 822.842C23.4044 813.805 24.4825 802.269 24.5078 792.864L24.4997 727.853L24.4729 604.698C24.4603 583.492 23.7727 562.141 24.4793 540.954Z"/>
	<path transform="matrix(3.5752 0 0 3.5752 -0.00390625 0)" d="M247.505 922.835L246.806 922.916L246.271 922.017L245.669 921.669C246.746 920.086 245.223 901.598 245.225 898.25L245.854 717C245.875 696.684 244.804 676.369 245.028 656.068C245.067 652.525 244.626 637.678 246.502 635.398L247.844 635.569C247.322 636.326 247.221 636.747 247.153 637.672C246.706 643.684 247.038 649.932 247.04 655.975L247.102 691.159L247.135 791.95L247.087 883.847C247.062 891.627 246.078 916.313 247.343 922.249C247.385 922.447 247.451 922.64 247.505 922.835Z"/>
</svg>
